<svg id="b3debe19-4b7c-4204-818a-e13e1e90e331" data-name="bah-logo" xmlns="http://www.w3.org/2000/svg" viewBox="0 0 122.14 13.11">
<path d="M1,9.19V6.07H2.86a2.1,2.1,0,0,1,1.38.31,1.75,1.75,0,0,1,.6,1.32,1.43,1.43,0,0,1-.52,1.14A2.12,2.12,0,0,1,3,9.19ZM1,5.3V2.53H2.84A2.23,2.23,0,0,1,4,2.74,1.21,1.21,0,0,1,4.6,3.88,1.42,1.42,0,0,1,4.08,5a2.45,2.45,0,0,1-1.5.31ZM3,10a2.94,2.94,0,0,0,2-.53,2.07,2.07,0,0,0,.79-1.73,2.1,2.1,0,0,0-1.7-2.1v0A1.81,1.81,0,0,0,5.6,3.76a1.91,1.91,0,0,0-.87-1.62A2.78,2.78,0,0,0,3,1.76H0V10Z"/>
<path d="M7.8,6.89a3.67,3.67,0,0,1,.3-1.53,1.56,1.56,0,0,1,1.4-.88,1.62,1.62,0,0,1,1.34.73,3.18,3.18,0,0,1,.39,1.68,3.54,3.54,0,0,1-.3,1.58,1.57,1.57,0,0,1-2.1.73,1.54,1.54,0,0,1-.67-.62A3.5,3.5,0,0,1,7.8,6.89Zm-1,0c0,1.61.82,3.22,2.65,3.22s2.83-1.5,2.83-3.2-.89-3.17-2.68-3.17S6.77,5.2,6.77,6.89Z"/>
<path d="M14.19,6.89a3.38,3.38,0,0,1,.3-1.53,1.55,1.55,0,0,1,1.4-.88,1.59,1.59,0,0,1,1.33.73,3.09,3.09,0,0,1,.39,1.68,3.28,3.28,0,0,1-.3,1.58,1.57,1.57,0,0,1-2.09.74,1.65,1.65,0,0,1-.68-.63A3.64,3.64,0,0,1,14.19,6.89Zm-1,0c0,1.61.82,3.22,2.64,3.22s2.83-1.5,2.83-3.2S17.75,3.74,16,3.74,13.16,5.2,13.16,6.89Z"/>
<path d="M23.71,4.41,20.35,9.26h3.36V10h-4.5V9.26l3.25-4.62h-3V3.89h4.25Z"/>
<path d="M29.8,12.7H29V0h.77Z"/>
<path d="M39,6.81H36.44l1.27-3.95Zm-.63-5H37.22L34.55,10h.87l.73-2.4H39.2L40,10h1Z"/>
<path d="M48,6.32a1.85,1.85,0,0,1,1.76-1.86,1.69,1.69,0,0,1,1.69,1.68,1,1,0,0,1,0,.18Zm3.46,1.85a1.71,1.71,0,0,1-1.65,1.18,1.86,1.86,0,0,1-1.61-.95A3,3,0,0,1,48,7h4.48c0-1.69-.77-3.28-2.67-3.28a2.92,2.92,0,0,0-2.83,3A1.48,1.48,0,0,0,47,7c0,1.71.95,3.17,2.8,3.17a2.66,2.66,0,0,0,2.59-1.79Z"/>
<path d="M54.69,4.93h0a2.1,2.1,0,0,1,1.9-1.19,1.91,1.91,0,0,1,1.72,1,4,4,0,0,1,.3,1.93V10H57.7V6.23a2.29,2.29,0,0,0-.18-1.13,1.24,1.24,0,0,0-1-.56,1.64,1.64,0,0,0-1.26.62,2.46,2.46,0,0,0-.48,1.64V10H53.8V3.89h.89Z"/>
<path d="M110.93,4.93h0a2.09,2.09,0,0,1,1.89-1.19,1.93,1.93,0,0,1,1.74,1,4.1,4.1,0,0,1,.29,1.93V10h-1V6.23a2.4,2.4,0,0,0-.16-1.13,1.27,1.27,0,0,0-1.05-.56,1.64,1.64,0,0,0-1.26.62A2.46,2.46,0,0,0,111,6.8V10H110V3.89h.9Z"/>
<path d="M64.79,12.7H64V0h.76Z"/>
<path d="M75.43,10V6H71.61v4h-1V1.76h1V5.25h3.82V1.76h1V10Z"/>
<path d="M81.88,7.32A2,2,0,0,1,80,9.38h0c-.78,0-1.32-.31-1.32-1.07,0-1.26,1.33-1.39,2.45-1.39h.76Zm-.77-1.11a5.59,5.59,0,0,0-2.29.36,1.85,1.85,0,0,0,1,3.54,2.13,2.13,0,0,0,2.09-1.26L82,10h.91a4.61,4.61,0,0,1-.13-1.28V6.34a2.85,2.85,0,0,0-.49-2,2.32,2.32,0,0,0-1.85-.6c-1.08,0-2.39.4-2.57,1.67l.87.14c.17-.84.88-1.08,1.63-1.08,1.07,0,1.52.41,1.52,1.48v.26Z"/>
<path d="M85.25,3.89V5h0a2.08,2.08,0,0,1,1.84-1.24A1.76,1.76,0,0,1,88.82,5.1a2.12,2.12,0,0,1,2-1.36,1.81,1.81,0,0,1,1.53.88,3.45,3.45,0,0,1,.29,1.74V10h-.94V6.36a2.68,2.68,0,0,0-.17-1.22,1.16,1.16,0,0,0-1-.64,1.53,1.53,0,0,0-1.18.69A2.31,2.31,0,0,0,89,6.71V10H88V6.12a2.16,2.16,0,0,0-.2-1,1.2,1.2,0,0,0-1-.59,1.53,1.53,0,0,0-1.11.6,2.15,2.15,0,0,0-.37,1.39V10H84.4V3.89Z"/>
<path d="M95.27,10h-.92V3.89h.92Zm0-7.17h-1V1.76h1Z"/>
<path d="M97.2,10V1.76h.91V10Z"/>
<path d="M42,10V1.76h.91V10Z"/>
<path d="M44.78,10V1.76h.91V10Z"/>
<path d="M102.85,10l-.9.07c-1.33,0-1.74-.78-1.74-2V4.59H99.13V3.84h1.08V2.32l.94-.1V3.84h1.36v.74h-1.36V8.27c0,.71.21,1.08,1,1.08l.72,0Z"/>
<path d="M104.34,6.89a3.52,3.52,0,0,1,.3-1.53,1.55,1.55,0,0,1,1.4-.88,1.59,1.59,0,0,1,1.33.73,3.09,3.09,0,0,1,.39,1.68,3.41,3.41,0,0,1-.3,1.58,1.55,1.55,0,0,1-2.76.11A3.53,3.53,0,0,1,104.34,6.89Zm-1,0c0,1.61.81,3.22,2.64,3.22a2.9,2.9,0,0,0,2.84-3.2c0-1.61-.9-3.17-2.69-3.17S103.32,5.2,103.32,6.89Z"/>
<path d="M118.14,2.74a1.19,1.19,0,0,1-.1.49,1.23,1.23,0,0,1-.66.65,1.2,1.2,0,0,1-1,0,1.23,1.23,0,0,1-.76-1.14,1.15,1.15,0,0,1,.1-.48,1.22,1.22,0,0,1,.66-.66,1.2,1.2,0,0,1,1,0,1.25,1.25,0,0,1,.66.66A1.15,1.15,0,0,1,118.14,2.74Zm-.19,0a1.15,1.15,0,0,0-.08-.41,1.05,1.05,0,0,0-1.37-.55,1.11,1.11,0,0,0-.34.22,1.19,1.19,0,0,0-.22.33,1.06,1.06,0,0,0,0,.82,1,1,0,0,0,1.37.56.94.94,0,0,0,.33-.23,1.09,1.09,0,0,0,.23-.33A1.15,1.15,0,0,0,118,2.74Zm-.73.72-.44-.59h-.15v.59h-.25V2h.52a.76.76,0,0,1,.41.1.39.39,0,0,1,.12.31.4.4,0,0,1-.1.29.46.46,0,0,1-.28.13l.48.6Zm0-1a.2.2,0,0,0,0-.11.11.11,0,0,0-.06-.07l-.09,0h-.38V2.7h.23c.22,0,.33-.09.33-.26Z"/>
</svg>